<mxfile host="app.diagrams.net" modified="2020-08-10T03:58:30.664Z" agent="5.0 (Windows NT 10.0; Win64; x64) AppleWebKit/537.36 (KHTML, like Gecko) Chrome/84.0.4147.105 Safari/537.36" etag="0NKwQD5Vn_nyz5ymL52P" version="13.6.0" type="github">
  <diagram id="67PVDyOlpaedbYYK1ZbK" name="Page-1">
    <mxGraphModel dx="2031" dy="1064" grid="1" gridSize="10" guides="1" tooltips="1" connect="1" arrows="1" fold="1" page="1" pageScale="1" pageWidth="1169" pageHeight="1654" math="0" shadow="0">
      <root>
        <mxCell id="0" />
        <mxCell id="1" parent="0" />
        <mxCell id="znN0Xuhw2Y3bnjqDEa4c-1" value="&lt;h1 style=&quot;font-size: 29px&quot;&gt;&lt;font style=&quot;font-size: 29px&quot;&gt;Jess Watkins&lt;/font&gt;&lt;/h1&gt;&lt;div style=&quot;font-size: 29px&quot;&gt;&lt;div&gt;&lt;b&gt;&lt;font style=&quot;font-size: 29px&quot;&gt;153 Rea Road |&amp;nbsp;&lt;/font&gt;&lt;/b&gt;&lt;/div&gt;&lt;div&gt;&lt;b&gt;&lt;font style=&quot;font-size: 29px&quot;&gt;Katikati | Western Bay of Plenty |&amp;nbsp;&lt;/font&gt;&lt;/b&gt;&lt;/div&gt;&lt;div&gt;&lt;b&gt;&lt;font style=&quot;font-size: 29px&quot;&gt;New Zealand | 3178&lt;/font&gt;&lt;/b&gt;&lt;/div&gt;&lt;/div&gt;" style="text;html=1;fillColor=none;spacing=5;spacingTop=-20;whiteSpace=wrap;overflow=hidden;rounded=0;rotation=-90;strokeColor=#000000;" vertex="1" parent="1">
          <mxGeometry x="110" y="440" width="400" height="270" as="geometry" />
        </mxCell>
        <mxCell id="znN0Xuhw2Y3bnjqDEa4c-2" value="&lt;h1 style=&quot;font-size: 29px&quot;&gt;&lt;font style=&quot;font-size: 29px&quot;&gt;Jess Watkins&lt;/font&gt;&lt;/h1&gt;&lt;div style=&quot;font-size: 29px&quot;&gt;&lt;div&gt;&lt;b&gt;&lt;font style=&quot;font-size: 29px&quot;&gt;153 Rea Road |&amp;nbsp;&lt;/font&gt;&lt;/b&gt;&lt;/div&gt;&lt;div&gt;&lt;b&gt;&lt;font style=&quot;font-size: 29px&quot;&gt;Katikati | Western Bay of Plenty |&amp;nbsp;&lt;/font&gt;&lt;/b&gt;&lt;/div&gt;&lt;div&gt;&lt;b&gt;&lt;font style=&quot;font-size: 29px&quot;&gt;New Zealand | 3178&lt;/font&gt;&lt;/b&gt;&lt;/div&gt;&lt;/div&gt;" style="text;html=1;fillColor=none;spacing=5;spacingTop=-20;whiteSpace=wrap;overflow=hidden;rounded=0;rotation=-90;strokeColor=#000000;" vertex="1" parent="1">
          <mxGeometry x="560" y="420" width="400" height="270" as="geometry" />
        </mxCell>
      </root>
    </mxGraphModel>
  </diagram>
</mxfile>
